<svg width="852" height="380" viewBox="0 0 852 380" fill="none" xmlns="http://www.w3.org/2000/svg">
<rect width="852" height="379.287" fill="#F6F6F6"/>
<path d="M296.017 150.705C273.47 150.705 258.339 163.833 258.339 189.299V207.456C260.628 206.33 263.141 205.733 265.692 205.708C268.247 205.709 270.769 206.292 273.065 207.413V189.214C273.065 172.698 282.186 164.216 296.08 164.216C309.975 164.216 318.968 172.698 318.968 189.214V228.894H333.651V189.214C333.694 163.598 318.563 150.705 296.017 150.705Z" fill="black"/>
<path d="M341.685 190.769C341.685 167.605 358.734 150.62 382.751 150.62C406.768 150.62 423.518 167.668 423.518 190.769V196.161H357.114C359.245 209.757 369.474 217.322 382.687 217.322C392.575 217.322 399.522 214.232 403.998 207.605H420.194C414.333 221.797 400.439 230.918 382.687 230.918C358.67 230.918 341.685 213.934 341.685 190.769ZM408.068 183.055C405.127 170.844 395.111 164.216 382.751 164.216C370.391 164.216 360.524 171.014 357.583 183.055H408.068Z" fill="black"/>
<path d="M431.36 190.769C431.36 167.626 448.409 150.641 472.426 150.641C496.443 150.641 513.492 167.69 513.492 190.769C513.492 213.849 496.443 230.918 472.426 230.918C448.409 230.918 431.36 213.934 431.36 190.769ZM498.681 190.769C498.681 175.34 488.175 164.216 472.426 164.216C456.678 164.216 446.193 175.34 446.193 190.769C446.193 206.198 456.677 217.322 472.405 217.322C488.132 217.322 498.681 206.219 498.681 190.769Z" fill="black"/>
<path d="M597.37 244.089H599.075C608.494 244.089 612.032 239.827 612.032 229.171V153.178H626.715V228.191C626.715 247.03 619.299 256.747 600.46 256.747H597.37V244.089Z" fill="black"/>
<path d="M590.039 236.246H575.356V218.154H538.169C534.774 218.272 531.412 217.449 528.456 215.775C525.5 214.101 523.064 211.642 521.419 208.67C520.083 205.877 519.562 202.763 519.916 199.687C520.27 196.611 521.486 193.697 523.422 191.281L556.795 147.487C559.101 144.374 562.33 142.067 566.023 140.894C569.715 139.721 573.684 139.74 577.364 140.951C581.045 142.161 584.25 144.5 586.526 147.636C588.801 150.772 590.03 154.545 590.039 158.42V205.133H601.057V218.154H590.039V236.246ZM535.633 199.294C535.194 199.918 534.956 200.661 534.951 201.425C534.948 201.91 535.042 202.39 535.226 202.839C535.41 203.287 535.682 203.695 536.025 204.038C536.368 204.381 536.775 204.652 537.224 204.837C537.672 205.021 538.153 205.114 538.638 205.111H575.356V158.058C575.383 157.266 575.15 156.487 574.692 155.84C574.234 155.193 573.576 154.715 572.82 154.477C572.383 154.353 571.932 154.289 571.478 154.286C570.904 154.285 570.339 154.427 569.833 154.699C569.327 154.97 568.896 155.363 568.579 155.841L535.633 199.294Z" fill="black"/>
<path d="M619.448 122C616.96 121.996 614.527 122.73 612.457 124.109C610.386 125.488 608.772 127.45 607.817 129.747C606.862 132.044 606.61 134.573 607.092 137.013C607.575 139.453 608.771 141.696 610.528 143.456C612.286 145.217 614.526 146.417 616.966 146.903C619.405 147.39 621.935 147.143 624.233 146.191C626.532 145.24 628.497 143.629 629.879 141.561C631.262 139.493 632 137.061 632 134.573C632 131.242 630.678 128.048 628.325 125.69C625.972 123.333 622.779 122.006 619.448 122Z" fill="#018BFF"/>
<path d="M265.052 210.375C262.325 210.378 259.675 211.276 257.508 212.932L243.699 203.492C244.006 202.388 244.164 201.249 244.168 200.103C244.197 197.616 243.487 195.175 242.127 193.092C240.767 191.009 238.818 189.377 236.528 188.403C234.239 187.43 231.712 187.158 229.268 187.624C226.824 188.09 224.573 189.271 222.802 191.018C221.031 192.765 219.819 195 219.32 197.437C218.821 199.874 219.058 202.405 220 204.708C220.942 207.01 222.547 208.981 224.612 210.37C226.676 211.758 229.107 212.502 231.595 212.506C234.322 212.508 236.974 211.609 239.139 209.949L252.905 219.453C252.28 221.676 252.28 224.029 252.905 226.251L239.096 235.692C236.943 234.041 234.308 233.142 231.595 233.135C229.106 233.131 226.672 233.865 224.601 235.245C222.53 236.625 220.915 238.588 219.961 240.887C219.007 243.185 218.756 245.715 219.241 248.156C219.725 250.597 220.923 252.839 222.683 254.599C224.442 256.358 226.685 257.556 229.126 258.041C231.567 258.525 234.096 258.274 236.395 257.32C238.693 256.366 240.656 254.751 242.036 252.68C243.416 250.609 244.151 248.175 244.147 245.687C244.146 244.557 243.995 243.432 243.699 242.341L257.508 232.9C259.675 234.556 262.325 235.455 265.052 235.458C268.224 235.231 271.192 233.811 273.358 231.484C275.525 229.157 276.73 226.096 276.73 222.916C276.73 219.737 275.525 216.675 273.358 214.348C271.192 212.021 268.224 210.602 265.052 210.375Z" fill="#018BFF"/>
</svg>
